<svg width="109" height="109" viewBox="0 0 109 109" fill="none" xmlns="http://www.w3.org/2000/svg">
<mask id="mask0" mask-type="alpha" maskUnits="userSpaceOnUse" x="0" y="0" width="109" height="109">
<path d="M0 13.5299C0 6.05756 6.05755 0 13.5299 0H94.7094C102.182 0 108.239 6.05755 108.239 13.5299V94.7094C108.239 102.182 102.182 108.239 94.7094 108.239H13.5299C6.05756 108.239 0 102.182 0 94.7094V13.5299Z" fill="white"/>
<path d="M0 13.5299C0 6.05756 6.05755 0 13.5299 0H94.7094C102.182 0 108.239 6.05755 108.239 13.5299V94.7094C108.239 102.182 102.182 108.239 94.7094 108.239H13.5299C6.05756 108.239 0 102.182 0 94.7094V13.5299Z" stroke="black"/>
</mask>
<g mask="url(#mask0)">
<path d="M0 0H108.239V108.239H0V0Z" fill="white"/>
<path d="M0 0H108.239V108.239H0V0Z" stroke="black"/>
<path d="M0 77.7971H108.239V108.239H0V77.7971Z" fill="#F39AC1"/>
<g clip-path="url(#clip0)">
<circle cx="30.4423" cy="64.2671" r="10.1474" fill="black"/>
<circle cx="77.797" cy="64.2671" r="10.1474" fill="black"/>
</g>
<circle cx="42.281" cy="89.6357" r="5.07372" fill="#DE699D"/>
<circle cx="65.9584" cy="89.6357" r="5.07372" fill="#DE699D"/>
<path d="M47.3547 18.6036C47.3547 36.3505 32.968 50.7372 15.2212 50.7372C-2.52572 50.7372 -16.9124 36.3505 -16.9124 18.6036C-16.9124 0.856767 -2.52572 -13.5299 15.2212 -13.5299C32.968 -13.5299 47.3547 0.856767 47.3547 18.6036Z" fill="black"/>
<path d="M126.843 42.281C126.843 52.5555 118.514 60.8847 108.239 60.8847C97.9649 60.8847 89.6357 52.5555 89.6357 42.281C89.6357 32.0065 97.9649 23.6774 108.239 23.6774C118.514 23.6774 126.843 32.0065 126.843 42.281Z" fill="black"/>
<rect x="3.38248" y="3.38248" width="101.474" height="101.474" rx="10.1474" stroke="black" stroke-width="6.76496"/>
</g>
<defs>
<clipPath id="clip0">
<rect x="20.2949" y="54.1197" width="67.6496" height="20.2949" fill="white"/>
</clipPath>
</defs>
</svg>
