<svg width="110" height="109" viewBox="0 0 110 109" fill="none" xmlns="http://www.w3.org/2000/svg">
<mask id="mask0" mask-type="alpha" maskUnits="userSpaceOnUse" x="0" y="0" width="110" height="109">
<path d="M0.763138 13.5299C0.763138 6.05756 6.82069 0 14.2931 0H95.4726C102.945 0 109.003 6.05755 109.003 13.5299V94.7094C109.003 102.182 102.945 108.239 95.4726 108.239H14.2931C6.8207 108.239 0.763138 102.182 0.763138 94.7094V13.5299Z" fill="white"/>
<path d="M0.763138 13.5299C0.763138 6.05756 6.82069 0 14.2931 0H95.4726C102.945 0 109.003 6.05755 109.003 13.5299V94.7094C109.003 102.182 102.945 108.239 95.4726 108.239H14.2931C6.8207 108.239 0.763138 102.182 0.763138 94.7094V13.5299Z" stroke="black"/>
</mask>
<g mask="url(#mask0)">
<path d="M0.763153 0H109.003V108.239H0.763153V0Z" fill="#D09559"/>
<path d="M0.763153 0H109.003V108.239H0.763153V0Z" stroke="black"/>
<rect x="0.763153" y="77.7971" width="108.239" height="30.4423" fill="#F39AC1"/>
<g clip-path="url(#clip0)">
<circle cx="34.5879" cy="64.2671" r="10.1474" fill="black"/>
<circle cx="78.5602" cy="64.2671" r="10.1474" fill="black"/>
</g>
<circle cx="43.0442" cy="89.6357" r="5.07372" fill="#DE699D"/>
<circle cx="66.7215" cy="89.6357" r="5.07372" fill="#DE699D"/>
<path d="M109.003 8.38854C109.003 31.7023 84.7723 47.3547 54.8828 47.3547C24.9934 47.3547 0.763153 31.7023 0.763153 8.38854C0.763153 -14.9253 24.9934 -33.8248 54.8828 -33.8248C84.7723 -33.8248 109.003 -14.9253 109.003 8.38854Z" fill="black"/>
<path d="M81.9427 23.6774C81.9427 40.4902 69.8276 54.1197 54.8829 54.1197C39.9381 54.1197 27.823 40.4902 27.823 23.6774C27.823 6.86452 39.9381 -6.76497 54.8829 -6.76497C69.8276 -6.76497 81.9427 6.86452 81.9427 23.6774Z" fill="#D09559"/>
<rect x="4.14563" y="3.38248" width="101.474" height="101.474" rx="10.1474" stroke="black" stroke-width="6.76496"/>
</g>
<defs>
<clipPath id="clip0">
<rect x="24.4405" y="54.1197" width="64.2671" height="20.2949" fill="white"/>
</clipPath>
</defs>
</svg>
