<svg width="24" height="24" viewBox="0 0 24 24" fill="none" xmlns="http://www.w3.org/2000/svg">
<mask id="mask0" mask-type="alpha" maskUnits="userSpaceOnUse" x="0" y="0" width="24" height="24">
<rect x="1" y="1" width="22" height="22" rx="3" fill="white" stroke="black" stroke-width="2"/>
</mask>
<g mask="url(#mask0)">
<rect width="24" height="24" rx="4" fill="#D09559"/>
<path d="M2 20H22C22 21.1046 21.1046 22 20 22H4C2.89543 22 2 21.1046 2 20Z" fill="#F39AC1"/>
<rect x="2" y="18" width="20" height="2" fill="#F39AC1"/>
<rect x="5" y="13" width="4" height="4" rx="2" fill="black"/>
<rect x="8" y="19" width="2" height="2" rx="1" fill="#B7366F"/>
<rect x="14" y="19" width="2" height="2" rx="1" fill="#B7366F"/>
<rect x="15" y="13" width="4" height="4" rx="2" fill="black"/>
<ellipse cx="12" cy="2" rx="12" ry="9" fill="black"/>
<circle cx="12" cy="7" r="6" fill="#D09559"/>
<rect x="1" y="1" width="22" height="22" rx="3" stroke="black" stroke-width="2"/>
</g>
</svg>
